<svg xmlns="http://www.w3.org/2000/svg" width="1600" height="860" viewBox="0 0 1600 860" style="max-width:100%;height:auto" role="img" aria-labelledby="title description">
<title id="title">티켓 구매 흐름</title><desc id="description">조회는 캐시로, 예약과 결제는 트랜잭션으로 처리합니다. 구매 확정 후 이벤트를 발행합니다. 대기 순번은 토큰 관리 기능입니다.</desc>
<defs>
<linearGradient id="background" x2="1" y2="1"><stop stop-color="#101c30"/><stop offset="1" stop-color="#050a13"/></linearGradient>
<linearGradient id="glass" x2=".3" y2="1"><stop stop-color="#182d48"/><stop offset="1" stop-color="#0b1424"/></linearGradient>
<linearGradient id="edge" x2=".8" y2="1"><stop stop-color="#6384a9" stop-opacity=".5"/><stop offset=".5" stop-color="#243951"/><stop offset="1" stop-color="#6384a9" stop-opacity=".15"/></linearGradient>
<radialGradient id="atmosphere"><stop stop-color="#28568a" stop-opacity=".24"/><stop offset="1" stop-color="#28568a" stop-opacity="0"/></radialGradient>
<radialGradient id="halo"><stop stop-color="#62d4ff" stop-opacity=".15"/><stop offset="1" stop-color="#62d4ff" stop-opacity="0"/></radialGradient>
<linearGradient id="seat" x2=".2" y2="1"><stop stop-color="#284d60"/><stop offset="1" stop-color="#102636"/></linearGradient>
<filter id="glow" x="-100%" y="-100%" width="300%" height="300%"><feGaussianBlur stdDeviation="4"/><feMerge><feMergeNode/><feMergeNode in="SourceGraphic"/></feMerge></filter>
<filter id="shadow" x="-20%" y="-20%" width="140%" height="150%"><feDropShadow dy="14" stdDeviation="18" flood-color="#000" flood-opacity=".35"/></filter>
<pattern id="grid" width="32" height="32" patternUnits="userSpaceOnUse"><circle cx="1" cy="1" r=".8" fill="#7499be" opacity=".13"/></pattern>
<symbol id="users" viewBox="0 0 64 64"><circle cx="27" cy="21" r="9"/><path d="M10 49v-4c0-9 7-14 17-14s17 5 17 14v4M44 13c13 1 13 16 3 18M49 36c7 2 9 6 9 13"/></symbol>
<symbol id="chip" viewBox="0 0 64 64"><rect x="14" y="14" width="36" height="36" rx="7"/><rect x="23" y="23" width="18" height="18" rx="4"/><path d="M23 5v9m18-9v9M23 50v9m18-9v9M5 23h9m-9 18h9M50 23h9m-9 18h9"/></symbol>
<symbol id="redis" viewBox="0 0 64 64"><path d="m6 22 26-13 26 13-26 13Zm0 12 26 13 26-13M6 46l26 13 26-13"/></symbol>
<symbol id="database" viewBox="0 0 64 64"><ellipse cx="32" cy="14" rx="23" ry="9"/><path d="M9 14v34c0 12 46 12 46 0V14M9 30c0 12 46 12 46 0"/></symbol>
<symbol id="kafka" viewBox="0 0 64 64"><path d="m27 31 20-17M28 33l20 17M25 27V12m0 26v14"/><circle cx="24" cy="32" r="9"/><circle cx="25" cy="7" r="5"/><circle cx="52" cy="10" r="6"/><circle cx="53" cy="53" r="6"/><circle cx="25" cy="57" r="5"/></symbol>
<symbol id="lock" viewBox="0 0 64 64"><rect x="13" y="28" width="38" height="29" rx="8"/><path d="M21 28V18c0-15 22-15 22 0v10"/><circle cx="32" cy="41" r="3"/><path d="M32 44v5"/></symbol>
<symbol id="key" viewBox="0 0 64 64"><circle cx="22" cy="23" r="14"/><circle cx="19" cy="20" r="3"/><path d="m32 33 22 22h7v-8h-8v-8h-9"/></symbol>
<linearGradient id="tail-blue"><stop stop-color="#62d4ff" stop-opacity="0"/><stop offset="1" stop-color="#62d4ff" stop-opacity=".8"/></linearGradient>
<linearGradient id="tail-mint"><stop stop-color="#7af4c4" stop-opacity="0"/><stop offset="1" stop-color="#7af4c4" stop-opacity=".8"/></linearGradient>
<linearGradient id="tail-purple"><stop stop-color="#bda0ff" stop-opacity="0"/><stop offset="1" stop-color="#bda0ff" stop-opacity=".8"/></linearGradient>
<linearGradient id="tail-gold"><stop stop-color="#ffd28a" stop-opacity="0"/><stop offset="1" stop-color="#ffd28a" stop-opacity=".8"/></linearGradient>
<linearGradient id="tail-red"><stop stop-color="#ff879c" stop-opacity="0"/><stop offset="1" stop-color="#ff879c" stop-opacity=".8"/></linearGradient>
</defs>
<rect width="1600" height="860" rx="26" fill="url(#background)"/><rect x="1" y="1" width="1598" height="858" rx="25" fill="none" stroke="#30465f" stroke-opacity=".6"/><ellipse cx="740" cy="410" rx="780" ry="420" fill="url(#atmosphere)"/><rect x="32" y="140" width="1536" height="560" fill="url(#grid)"/><text x="58" y="104" fill="#edf5ff" font-family="Malgun Gothic,Apple SD Gothic Neo,Noto Sans KR,Segoe UI,sans-serif" font-size="45" font-weight="650" text-anchor="start">티켓 구매 흐름</text><path d="M330 361 C402 361 431 361 515 361" fill="none" stroke="#1d334c" stroke-width="2"/><path d="M515 414 C435 414 416 414 330 414" fill="none" stroke="#1d334c" stroke-width="2"/><path d="M805 345 C930 345 928 252 1120 252" fill="none" stroke="#1d334c" stroke-width="2"/><path d="M1120 287 C950 287 960 395 805 395" fill="none" stroke="#1d334c" stroke-width="2"/><path d="M805 416 C930 416 963 433 1120 433" fill="none" stroke="#1d334c" stroke-width="2"/><path d="M1120 470 C981 470 943 458 805 458" fill="none" stroke="#1d334c" stroke-width="2"/><path d="M805 488 C939 488 926 614 1120 614" fill="none" stroke="#1d334c" stroke-width="2"/><ellipse cx="660" cy="405" rx="250" ry="228" fill="url(#halo)"/><circle cx="660" cy="405" r="183" fill="none" stroke="#284c6c" stroke-opacity=".5"/><g><animateTransform attributeName="transform" type="rotate" from="0 660 405" to="360 660 405" dur="24s" repeatCount="indefinite"/><circle cx="660" cy="405" r="183" fill="none" stroke="#62d4ff" stroke-opacity=".65" stroke-width="2" stroke-dasharray="28 260"/></g><rect x="90" y="288" width="240" height="190" rx="22" fill="url(#glass)" stroke="url(#edge)" filter="url(#shadow)"/><rect x="108" y="308" width="62" height="62" rx="18" fill="#0c192a" stroke="#30445a" /><use href="#users" x="117" y="317" width="44" height="44" fill="none" stroke="#62d4ff" stroke-width="2.7" stroke-linecap="round" stroke-linejoin="round"/><text x="186" y="353" fill="#edf5ff" font-family="Malgun Gothic,Apple SD Gothic Neo,Noto Sans KR,Segoe UI,sans-serif" font-size="30" font-weight="600" text-anchor="start">사용자</text><rect x="515" y="260" width="290" height="300" rx="22" fill="url(#glass)" stroke="url(#edge)" filter="url(#shadow)"/><rect x="607" y="287" width="106" height="100" rx="26" fill="#10243a" stroke="#3b6487" /><use href="#chip" x="628" y="305" width="64" height="64" fill="none" stroke="#62d4ff" stroke-width="2.7" stroke-linecap="round" stroke-linejoin="round"/><text x="660" y="429" fill="#edf5ff" font-family="Malgun Gothic,Apple SD Gothic Neo,Noto Sans KR,Segoe UI,sans-serif" font-size="32" font-weight="650" text-anchor="middle">예매 서버</text><rect x="1120" y="196" width="370" height="145" rx="22" fill="url(#glass)" stroke="url(#edge)" filter="url(#shadow)"/><rect x="1138" y="216" width="62" height="62" rx="18" fill="#0c192a" stroke="#30445a" /><use href="#redis" x="1147" y="225" width="44" height="44" fill="none" stroke="#bda0ff" stroke-width="2.7" stroke-linecap="round" stroke-linejoin="round"/><text x="1216" y="261" fill="#edf5ff" font-family="Malgun Gothic,Apple SD Gothic Neo,Noto Sans KR,Segoe UI,sans-serif" font-size="30" font-weight="600" text-anchor="start">Redis</text><text x="1144" y="315" fill="#95a9c4" font-family="Malgun Gothic,Apple SD Gothic Neo,Noto Sans KR,Segoe UI,sans-serif" font-size="22" font-weight="400" text-anchor="start">조회 캐시 · 대기 순번</text><rect x="1120" y="379" width="370" height="145" rx="22" fill="url(#glass)" stroke="url(#edge)" filter="url(#shadow)"/><rect x="1138" y="399" width="62" height="62" rx="18" fill="#0c192a" stroke="#30445a" /><use href="#database" x="1147" y="408" width="44" height="44" fill="none" stroke="#ffd28a" stroke-width="2.7" stroke-linecap="round" stroke-linejoin="round"/><text x="1216" y="444" fill="#edf5ff" font-family="Malgun Gothic,Apple SD Gothic Neo,Noto Sans KR,Segoe UI,sans-serif" font-size="30" font-weight="600" text-anchor="start">PostgreSQL</text><text x="1144" y="498" fill="#95a9c4" font-family="Malgun Gothic,Apple SD Gothic Neo,Noto Sans KR,Segoe UI,sans-serif" font-size="22" font-weight="400" text-anchor="start">예약 · 결제 저장</text><rect x="1120" y="562" width="370" height="145" rx="22" fill="url(#glass)" stroke="url(#edge)" filter="url(#shadow)"/><rect x="1138" y="582" width="62" height="62" rx="18" fill="#0c192a" stroke="#30445a" /><use href="#kafka" x="1147" y="591" width="44" height="44" fill="none" stroke="#7af4c4" stroke-width="2.7" stroke-linecap="round" stroke-linejoin="round"/><text x="1216" y="627" fill="#edf5ff" font-family="Malgun Gothic,Apple SD Gothic Neo,Noto Sans KR,Segoe UI,sans-serif" font-size="30" font-weight="600" text-anchor="start">Kafka</text><text x="1144" y="681" fill="#95a9c4" font-family="Malgun Gothic,Apple SD Gothic Neo,Noto Sans KR,Segoe UI,sans-serif" font-size="22" font-weight="400" text-anchor="start">구매 완료 이벤트</text><path d="M330 361 C402 361 431 361 515 361" fill="none" stroke="#1d334c" stroke-width="2"/><g opacity="0" ><animate attributeName="opacity" dur="16s" repeatCount="indefinite" keyTimes="0.00000;0.23875;0.25000;1.00000" values="1;1;0;0" /><path d="M330 361 C402 361 431 361 515 361" fill="none" stroke="#62d4ff" stroke-width="2" stroke-opacity=".48"/></g><path d="M515 414 C435 414 416 414 330 414" fill="none" stroke="#1d334c" stroke-width="2"/><g opacity="0" ><animate attributeName="opacity" dur="16s" repeatCount="indefinite" keyTimes="0.00000;0.23875;0.25000;1.00000" values="1;1;0;0" /><path d="M515 414 C435 414 416 414 330 414" fill="none" stroke="#7af4c4" stroke-width="2" stroke-opacity=".48"/></g><g opacity="0" ><animate attributeName="opacity" dur="16s" repeatCount="indefinite" keyTimes="0.00000;0.23875;0.25000;1.00000" values="1;1;0;0" /><text x="660" y="505" fill="#62d4ff" font-family="Malgun Gothic,Apple SD Gothic Neo,Noto Sans KR,Segoe UI,sans-serif" font-size="23" font-weight="400" text-anchor="middle">캐시로 빠른 조회</text></g><g class="packet" opacity="0"><animateMotion path="M330 361 C402 361 431 361 515 361" dur="16s" repeatCount="indefinite" rotate="auto" keyPoints="0;0;1;1" keyTimes="0;0.01125;0.06438;1" calcMode="spline" keySplines="0 0 1 1;.32 0 .68 1;0 0 1 1"/><animate attributeName="opacity" dur="16s" repeatCount="indefinite" keyTimes="0.00000;0.01125;0.01937;0.05625;0.06438;1.00000" values="0;0;1;1;0;0" /><g transform="scale(1)">
<path d="M-38-2.5 Q-16-5 -3-3 L-3 3 Q-16 5-38 2.5Z" fill="url(#tail-blue)"/>
<ellipse rx="9" ry="6" fill="#62d4ff" opacity=".45" filter="url(#glow)"/>
<circle r="4.2" fill="#62d4ff"/><circle cx="1" cy="-1" r="1.5" fill="#fff" opacity=".9"/></g></g><g class="packet" opacity="0"><animateMotion path="M515 414 C435 414 416 414 330 414" dur="16s" repeatCount="indefinite" rotate="auto" keyPoints="0;0;1;1" keyTimes="0;0.07687;0.13312;1" calcMode="spline" keySplines="0 0 1 1;.32 0 .68 1;0 0 1 1"/><animate attributeName="opacity" dur="16s" repeatCount="indefinite" keyTimes="0.00000;0.07687;0.08500;0.12500;0.13312;1.00000" values="0;0;1;1;0;0" /><g transform="scale(1)">
<path d="M-38-2.5 Q-16-5 -3-3 L-3 3 Q-16 5-38 2.5Z" fill="url(#tail-mint)"/>
<ellipse rx="9" ry="6" fill="#7af4c4" opacity=".45" filter="url(#glow)"/>
<circle r="4.2" fill="#7af4c4"/><circle cx="1" cy="-1" r="1.5" fill="#fff" opacity=".9"/></g></g><g class="packet" opacity="0"><animateMotion path="M330 361 C402 361 431 361 515 361" dur="16s" repeatCount="indefinite" rotate="auto" keyPoints="0;0;1;1" keyTimes="0;0.06875;0.12188;1" calcMode="spline" keySplines="0 0 1 1;.32 0 .68 1;0 0 1 1"/><animate attributeName="opacity" dur="16s" repeatCount="indefinite" keyTimes="0.00000;0.06875;0.07687;0.11375;0.12188;1.00000" values="0;0;1;1;0;0" /><g transform="scale(1)">
<path d="M-38-2.5 Q-16-5 -3-3 L-3 3 Q-16 5-38 2.5Z" fill="url(#tail-blue)"/>
<ellipse rx="9" ry="6" fill="#62d4ff" opacity=".45" filter="url(#glow)"/>
<circle r="4.2" fill="#62d4ff"/><circle cx="1" cy="-1" r="1.5" fill="#fff" opacity=".9"/></g></g><g class="packet" opacity="0"><animateMotion path="M515 414 C435 414 416 414 330 414" dur="16s" repeatCount="indefinite" rotate="auto" keyPoints="0;0;1;1" keyTimes="0;0.13438;0.19062;1" calcMode="spline" keySplines="0 0 1 1;.32 0 .68 1;0 0 1 1"/><animate attributeName="opacity" dur="16s" repeatCount="indefinite" keyTimes="0.00000;0.13438;0.14250;0.18250;0.19062;1.00000" values="0;0;1;1;0;0" /><g transform="scale(1)">
<path d="M-38-2.5 Q-16-5 -3-3 L-3 3 Q-16 5-38 2.5Z" fill="url(#tail-mint)"/>
<ellipse rx="9" ry="6" fill="#7af4c4" opacity=".45" filter="url(#glow)"/>
<circle r="4.2" fill="#7af4c4"/><circle cx="1" cy="-1" r="1.5" fill="#fff" opacity=".9"/></g></g><g class="packet" opacity="0"><animateMotion path="M330 361 C402 361 431 361 515 361" dur="16s" repeatCount="indefinite" rotate="auto" keyPoints="0;0;1;1" keyTimes="0;0.12625;0.17938;1" calcMode="spline" keySplines="0 0 1 1;.32 0 .68 1;0 0 1 1"/><animate attributeName="opacity" dur="16s" repeatCount="indefinite" keyTimes="0.00000;0.12625;0.13437;0.17125;0.17938;1.00000" values="0;0;1;1;0;0" /><g transform="scale(1)">
<path d="M-38-2.5 Q-16-5 -3-3 L-3 3 Q-16 5-38 2.5Z" fill="url(#tail-blue)"/>
<ellipse rx="9" ry="6" fill="#62d4ff" opacity=".45" filter="url(#glow)"/>
<circle r="4.2" fill="#62d4ff"/><circle cx="1" cy="-1" r="1.5" fill="#fff" opacity=".9"/></g></g><g class="packet" opacity="0"><animateMotion path="M515 414 C435 414 416 414 330 414" dur="16s" repeatCount="indefinite" rotate="auto" keyPoints="0;0;1;1" keyTimes="0;0.19188;0.24750;1" calcMode="spline" keySplines="0 0 1 1;.32 0 .68 1;0 0 1 1"/><animate attributeName="opacity" dur="16s" repeatCount="indefinite" keyTimes="0.00000;0.19188;0.20000;0.23938;0.24750;1.00000" values="0;0;1;1;0;0" /><g transform="scale(1)">
<path d="M-38-2.5 Q-16-5 -3-3 L-3 3 Q-16 5-38 2.5Z" fill="url(#tail-mint)"/>
<ellipse rx="9" ry="6" fill="#7af4c4" opacity=".45" filter="url(#glow)"/>
<circle r="4.2" fill="#7af4c4"/><circle cx="1" cy="-1" r="1.5" fill="#fff" opacity=".9"/></g></g><path d="M805 345 C930 345 928 252 1120 252" fill="none" stroke="#1d334c" stroke-width="2"/><g opacity="0" ><animate attributeName="opacity" dur="16s" repeatCount="indefinite" keyTimes="0.00000;0.23875;0.25000;1.00000" values="1;1;0;0" /><path d="M805 345 C930 345 928 252 1120 252" fill="none" stroke="#62d4ff" stroke-width="2" stroke-opacity=".48"/></g><path d="M1120 287 C950 287 960 395 805 395" fill="none" stroke="#1d334c" stroke-width="2"/><g opacity="0" ><animate attributeName="opacity" dur="16s" repeatCount="indefinite" keyTimes="0.00000;0.23875;0.25000;1.00000" values="1;1;0;0" /><path d="M1120 287 C950 287 960 395 805 395" fill="none" stroke="#62d4ff" stroke-width="2" stroke-opacity=".48"/></g><g class="packet" opacity="0"><animateMotion path="M805 345 C930 345 928 252 1120 252" dur="16s" repeatCount="indefinite" rotate="auto" keyPoints="0;0;1;1" keyTimes="0;0.04500;0.09625;1" calcMode="spline" keySplines="0 0 1 1;.32 0 .68 1;0 0 1 1"/><animate attributeName="opacity" dur="16s" repeatCount="indefinite" keyTimes="0.00000;0.04500;0.05312;0.08813;0.09625;1.00000" values="0;0;1;1;0;0" /><g transform="scale(1)">
<path d="M-38-2.5 Q-16-5 -3-3 L-3 3 Q-16 5-38 2.5Z" fill="url(#tail-blue)"/>
<ellipse rx="9" ry="6" fill="#62d4ff" opacity=".45" filter="url(#glow)"/>
<circle r="4.2" fill="#62d4ff"/><circle cx="1" cy="-1" r="1.5" fill="#fff" opacity=".9"/></g></g><g class="packet" opacity="0"><animateMotion path="M1120 287 C950 287 960 395 805 395" dur="16s" repeatCount="indefinite" rotate="auto" keyPoints="0;0;1;1" keyTimes="0;0.10437;0.14875;1" calcMode="spline" keySplines="0 0 1 1;.32 0 .68 1;0 0 1 1"/><animate attributeName="opacity" dur="16s" repeatCount="indefinite" keyTimes="0.00000;0.10437;0.11250;0.14062;0.14875;1.00000" values="0;0;1;1;0;0" /><g transform="scale(1)">
<path d="M-38-2.5 Q-16-5 -3-3 L-3 3 Q-16 5-38 2.5Z" fill="url(#tail-blue)"/>
<ellipse rx="9" ry="6" fill="#62d4ff" opacity=".45" filter="url(#glow)"/>
<circle r="4.2" fill="#62d4ff"/><circle cx="1" cy="-1" r="1.5" fill="#fff" opacity=".9"/></g></g><g class="packet" opacity="0"><animateMotion path="M805 345 C930 345 928 252 1120 252" dur="16s" repeatCount="indefinite" rotate="auto" keyPoints="0;0;1;1" keyTimes="0;0.12125;0.17250;1" calcMode="spline" keySplines="0 0 1 1;.32 0 .68 1;0 0 1 1"/><animate attributeName="opacity" dur="16s" repeatCount="indefinite" keyTimes="0.00000;0.12125;0.12937;0.16437;0.17250;1.00000" values="0;0;1;1;0;0" /><g transform="scale(1)">
<path d="M-38-2.5 Q-16-5 -3-3 L-3 3 Q-16 5-38 2.5Z" fill="url(#tail-blue)"/>
<ellipse rx="9" ry="6" fill="#62d4ff" opacity=".45" filter="url(#glow)"/>
<circle r="4.2" fill="#62d4ff"/><circle cx="1" cy="-1" r="1.5" fill="#fff" opacity=".9"/></g></g><g class="packet" opacity="0"><animateMotion path="M1120 287 C950 287 960 395 805 395" dur="16s" repeatCount="indefinite" rotate="auto" keyPoints="0;0;1;1" keyTimes="0;0.18062;0.22500;1" calcMode="spline" keySplines="0 0 1 1;.32 0 .68 1;0 0 1 1"/><animate attributeName="opacity" dur="16s" repeatCount="indefinite" keyTimes="0.00000;0.18062;0.18875;0.21687;0.22500;1.00000" values="0;0;1;1;0;0" /><g transform="scale(1)">
<path d="M-38-2.5 Q-16-5 -3-3 L-3 3 Q-16 5-38 2.5Z" fill="url(#tail-blue)"/>
<ellipse rx="9" ry="6" fill="#62d4ff" opacity=".45" filter="url(#glow)"/>
<circle r="4.2" fill="#62d4ff"/><circle cx="1" cy="-1" r="1.5" fill="#fff" opacity=".9"/></g></g><path d="M330 361 C402 361 431 361 515 361" fill="none" stroke="#1d334c" stroke-width="2"/><g opacity="0" ><animate attributeName="opacity" dur="16s" repeatCount="indefinite" keyTimes="0.00000;0.25000;0.26125;0.48875;0.50000;1.00000" values="0;0;1;1;0;0" /><path d="M330 361 C402 361 431 361 515 361" fill="none" stroke="#bda0ff" stroke-width="2" stroke-opacity=".48"/></g><path d="M515 414 C435 414 416 414 330 414" fill="none" stroke="#1d334c" stroke-width="2"/><g opacity="0" ><animate attributeName="opacity" dur="16s" repeatCount="indefinite" keyTimes="0.00000;0.25000;0.26125;0.48875;0.50000;1.00000" values="0;0;1;1;0;0" /><path d="M515 414 C435 414 416 414 330 414" fill="none" stroke="#7af4c4" stroke-width="2" stroke-opacity=".48"/></g><g opacity="0" ><animate attributeName="opacity" dur="16s" repeatCount="indefinite" keyTimes="0.00000;0.25000;0.26125;0.48875;0.50000;1.00000" values="0;0;1;1;0;0" /><text x="660" y="505" fill="#bda0ff" font-family="Malgun Gothic,Apple SD Gothic Neo,Noto Sans KR,Segoe UI,sans-serif" font-size="23" font-weight="400" text-anchor="middle">순번 토큰 발급</text></g><g class="packet" opacity="0"><animateMotion path="M330 361 C402 361 431 361 515 361" dur="16s" repeatCount="indefinite" rotate="auto" keyPoints="0;0;1;1" keyTimes="0;0.26125;0.31437;1" calcMode="spline" keySplines="0 0 1 1;.32 0 .68 1;0 0 1 1"/><animate attributeName="opacity" dur="16s" repeatCount="indefinite" keyTimes="0.00000;0.26125;0.26937;0.30625;0.31437;1.00000" values="0;0;1;1;0;0" /><g transform="scale(1)">
<path d="M-38-2.5 Q-16-5 -3-3 L-3 3 Q-16 5-38 2.5Z" fill="url(#tail-purple)"/>
<ellipse rx="9" ry="6" fill="#bda0ff" opacity=".45" filter="url(#glow)"/>
<circle r="4.2" fill="#bda0ff"/><circle cx="1" cy="-1" r="1.5" fill="#fff" opacity=".9"/></g></g><g class="packet" opacity="0"><animateMotion path="M515 414 C435 414 416 414 330 414" dur="16s" repeatCount="indefinite" rotate="auto" keyPoints="0;0;1;1" keyTimes="0;0.32687;0.38312;1" calcMode="spline" keySplines="0 0 1 1;.32 0 .68 1;0 0 1 1"/><animate attributeName="opacity" dur="16s" repeatCount="indefinite" keyTimes="0.00000;0.32687;0.33500;0.37500;0.38312;1.00000" values="0;0;1;1;0;0" /><g transform="scale(1)">
<path d="M-38-2.5 Q-16-5 -3-3 L-3 3 Q-16 5-38 2.5Z" fill="url(#tail-mint)"/>
<ellipse rx="9" ry="6" fill="#7af4c4" opacity=".45" filter="url(#glow)"/>
<circle r="4.2" fill="#7af4c4"/><circle cx="1" cy="-1" r="1.5" fill="#fff" opacity=".9"/></g></g><g class="packet" opacity="0"><animateMotion path="M330 361 C402 361 431 361 515 361" dur="16s" repeatCount="indefinite" rotate="auto" keyPoints="0;0;1;1" keyTimes="0;0.31875;0.37187;1" calcMode="spline" keySplines="0 0 1 1;.32 0 .68 1;0 0 1 1"/><animate attributeName="opacity" dur="16s" repeatCount="indefinite" keyTimes="0.00000;0.31875;0.32687;0.36375;0.37187;1.00000" values="0;0;1;1;0;0" /><g transform="scale(1)">
<path d="M-38-2.5 Q-16-5 -3-3 L-3 3 Q-16 5-38 2.5Z" fill="url(#tail-purple)"/>
<ellipse rx="9" ry="6" fill="#bda0ff" opacity=".45" filter="url(#glow)"/>
<circle r="4.2" fill="#bda0ff"/><circle cx="1" cy="-1" r="1.5" fill="#fff" opacity=".9"/></g></g><g class="packet" opacity="0"><animateMotion path="M515 414 C435 414 416 414 330 414" dur="16s" repeatCount="indefinite" rotate="auto" keyPoints="0;0;1;1" keyTimes="0;0.38437;0.44062;1" calcMode="spline" keySplines="0 0 1 1;.32 0 .68 1;0 0 1 1"/><animate attributeName="opacity" dur="16s" repeatCount="indefinite" keyTimes="0.00000;0.38437;0.39250;0.43250;0.44062;1.00000" values="0;0;1;1;0;0" /><g transform="scale(1)">
<path d="M-38-2.5 Q-16-5 -3-3 L-3 3 Q-16 5-38 2.5Z" fill="url(#tail-mint)"/>
<ellipse rx="9" ry="6" fill="#7af4c4" opacity=".45" filter="url(#glow)"/>
<circle r="4.2" fill="#7af4c4"/><circle cx="1" cy="-1" r="1.5" fill="#fff" opacity=".9"/></g></g><g class="packet" opacity="0"><animateMotion path="M330 361 C402 361 431 361 515 361" dur="16s" repeatCount="indefinite" rotate="auto" keyPoints="0;0;1;1" keyTimes="0;0.37625;0.42937;1" calcMode="spline" keySplines="0 0 1 1;.32 0 .68 1;0 0 1 1"/><animate attributeName="opacity" dur="16s" repeatCount="indefinite" keyTimes="0.00000;0.37625;0.38437;0.42125;0.42937;1.00000" values="0;0;1;1;0;0" /><g transform="scale(1)">
<path d="M-38-2.5 Q-16-5 -3-3 L-3 3 Q-16 5-38 2.5Z" fill="url(#tail-purple)"/>
<ellipse rx="9" ry="6" fill="#bda0ff" opacity=".45" filter="url(#glow)"/>
<circle r="4.2" fill="#bda0ff"/><circle cx="1" cy="-1" r="1.5" fill="#fff" opacity=".9"/></g></g><g class="packet" opacity="0"><animateMotion path="M515 414 C435 414 416 414 330 414" dur="16s" repeatCount="indefinite" rotate="auto" keyPoints="0;0;1;1" keyTimes="0;0.44187;0.49750;1" calcMode="spline" keySplines="0 0 1 1;.32 0 .68 1;0 0 1 1"/><animate attributeName="opacity" dur="16s" repeatCount="indefinite" keyTimes="0.00000;0.44187;0.45000;0.48938;0.49750;1.00000" values="0;0;1;1;0;0" /><g transform="scale(1)">
<path d="M-38-2.5 Q-16-5 -3-3 L-3 3 Q-16 5-38 2.5Z" fill="url(#tail-mint)"/>
<ellipse rx="9" ry="6" fill="#7af4c4" opacity=".45" filter="url(#glow)"/>
<circle r="4.2" fill="#7af4c4"/><circle cx="1" cy="-1" r="1.5" fill="#fff" opacity=".9"/></g></g><path d="M805 345 C930 345 928 252 1120 252" fill="none" stroke="#1d334c" stroke-width="2"/><g opacity="0" ><animate attributeName="opacity" dur="16s" repeatCount="indefinite" keyTimes="0.00000;0.25000;0.26125;0.48875;0.50000;1.00000" values="0;0;1;1;0;0" /><path d="M805 345 C930 345 928 252 1120 252" fill="none" stroke="#bda0ff" stroke-width="2" stroke-opacity=".48"/></g><path d="M1120 287 C950 287 960 395 805 395" fill="none" stroke="#1d334c" stroke-width="2"/><g opacity="0" ><animate attributeName="opacity" dur="16s" repeatCount="indefinite" keyTimes="0.00000;0.25000;0.26125;0.48875;0.50000;1.00000" values="0;0;1;1;0;0" /><path d="M1120 287 C950 287 960 395 805 395" fill="none" stroke="#bda0ff" stroke-width="2" stroke-opacity=".48"/></g><g class="packet" opacity="0"><animateMotion path="M805 345 C930 345 928 252 1120 252" dur="16s" repeatCount="indefinite" rotate="auto" keyPoints="0;0;1;1" keyTimes="0;0.29500;0.34625;1" calcMode="spline" keySplines="0 0 1 1;.32 0 .68 1;0 0 1 1"/><animate attributeName="opacity" dur="16s" repeatCount="indefinite" keyTimes="0.00000;0.29500;0.30312;0.33813;0.34625;1.00000" values="0;0;1;1;0;0" /><g transform="scale(1)">
<path d="M-38-2.5 Q-16-5 -3-3 L-3 3 Q-16 5-38 2.5Z" fill="url(#tail-purple)"/>
<ellipse rx="9" ry="6" fill="#bda0ff" opacity=".45" filter="url(#glow)"/>
<circle r="4.2" fill="#bda0ff"/><circle cx="1" cy="-1" r="1.5" fill="#fff" opacity=".9"/></g></g><g class="packet" opacity="0"><animateMotion path="M1120 287 C950 287 960 395 805 395" dur="16s" repeatCount="indefinite" rotate="auto" keyPoints="0;0;1;1" keyTimes="0;0.35437;0.39875;1" calcMode="spline" keySplines="0 0 1 1;.32 0 .68 1;0 0 1 1"/><animate attributeName="opacity" dur="16s" repeatCount="indefinite" keyTimes="0.00000;0.35437;0.36250;0.39062;0.39875;1.00000" values="0;0;1;1;0;0" /><g transform="scale(1)">
<path d="M-38-2.5 Q-16-5 -3-3 L-3 3 Q-16 5-38 2.5Z" fill="url(#tail-purple)"/>
<ellipse rx="9" ry="6" fill="#bda0ff" opacity=".45" filter="url(#glow)"/>
<circle r="4.2" fill="#bda0ff"/><circle cx="1" cy="-1" r="1.5" fill="#fff" opacity=".9"/></g></g><g class="packet" opacity="0"><animateMotion path="M805 345 C930 345 928 252 1120 252" dur="16s" repeatCount="indefinite" rotate="auto" keyPoints="0;0;1;1" keyTimes="0;0.37125;0.42250;1" calcMode="spline" keySplines="0 0 1 1;.32 0 .68 1;0 0 1 1"/><animate attributeName="opacity" dur="16s" repeatCount="indefinite" keyTimes="0.00000;0.37125;0.37937;0.41437;0.42250;1.00000" values="0;0;1;1;0;0" /><g transform="scale(1)">
<path d="M-38-2.5 Q-16-5 -3-3 L-3 3 Q-16 5-38 2.5Z" fill="url(#tail-purple)"/>
<ellipse rx="9" ry="6" fill="#bda0ff" opacity=".45" filter="url(#glow)"/>
<circle r="4.2" fill="#bda0ff"/><circle cx="1" cy="-1" r="1.5" fill="#fff" opacity=".9"/></g></g><g class="packet" opacity="0"><animateMotion path="M1120 287 C950 287 960 395 805 395" dur="16s" repeatCount="indefinite" rotate="auto" keyPoints="0;0;1;1" keyTimes="0;0.43062;0.47500;1" calcMode="spline" keySplines="0 0 1 1;.32 0 .68 1;0 0 1 1"/><animate attributeName="opacity" dur="16s" repeatCount="indefinite" keyTimes="0.00000;0.43062;0.43875;0.46687;0.47500;1.00000" values="0;0;1;1;0;0" /><g transform="scale(1)">
<path d="M-38-2.5 Q-16-5 -3-3 L-3 3 Q-16 5-38 2.5Z" fill="url(#tail-purple)"/>
<ellipse rx="9" ry="6" fill="#bda0ff" opacity=".45" filter="url(#glow)"/>
<circle r="4.2" fill="#bda0ff"/><circle cx="1" cy="-1" r="1.5" fill="#fff" opacity=".9"/></g></g><path d="M330 361 C402 361 431 361 515 361" fill="none" stroke="#1d334c" stroke-width="2"/><g opacity="0" ><animate attributeName="opacity" dur="16s" repeatCount="indefinite" keyTimes="0.00000;0.50000;0.51125;0.73875;0.75000;1.00000" values="0;0;1;1;0;0" /><path d="M330 361 C402 361 431 361 515 361" fill="none" stroke="#ffd28a" stroke-width="2" stroke-opacity=".48"/></g><path d="M515 414 C435 414 416 414 330 414" fill="none" stroke="#1d334c" stroke-width="2"/><g opacity="0" ><animate attributeName="opacity" dur="16s" repeatCount="indefinite" keyTimes="0.00000;0.50000;0.51125;0.73875;0.75000;1.00000" values="0;0;1;1;0;0" /><path d="M515 414 C435 414 416 414 330 414" fill="none" stroke="#7af4c4" stroke-width="2" stroke-opacity=".48"/></g><g opacity="0" ><animate attributeName="opacity" dur="16s" repeatCount="indefinite" keyTimes="0.00000;0.50000;0.51125;0.73875;0.75000;1.00000" values="0;0;1;1;0;0" /><text x="660" y="505" fill="#ffd28a" font-family="Malgun Gothic,Apple SD Gothic Neo,Noto Sans KR,Segoe UI,sans-serif" font-size="23" font-weight="400" text-anchor="middle">좌석 잠금 후 예약</text></g><g class="packet" opacity="0"><animateMotion path="M330 361 C402 361 431 361 515 361" dur="16s" repeatCount="indefinite" rotate="auto" keyPoints="0;0;1;1" keyTimes="0;0.51125;0.56437;1" calcMode="spline" keySplines="0 0 1 1;.32 0 .68 1;0 0 1 1"/><animate attributeName="opacity" dur="16s" repeatCount="indefinite" keyTimes="0.00000;0.51125;0.51938;0.55625;0.56437;1.00000" values="0;0;1;1;0;0" /><g transform="scale(1)">
<path d="M-38-2.5 Q-16-5 -3-3 L-3 3 Q-16 5-38 2.5Z" fill="url(#tail-gold)"/>
<ellipse rx="9" ry="6" fill="#ffd28a" opacity=".45" filter="url(#glow)"/>
<circle r="4.2" fill="#ffd28a"/><circle cx="1" cy="-1" r="1.5" fill="#fff" opacity=".9"/></g></g><g class="packet" opacity="0"><animateMotion path="M515 414 C435 414 416 414 330 414" dur="16s" repeatCount="indefinite" rotate="auto" keyPoints="0;0;1;1" keyTimes="0;0.57688;0.63312;1" calcMode="spline" keySplines="0 0 1 1;.32 0 .68 1;0 0 1 1"/><animate attributeName="opacity" dur="16s" repeatCount="indefinite" keyTimes="0.00000;0.57688;0.58500;0.62500;0.63312;1.00000" values="0;0;1;1;0;0" /><g transform="scale(1)">
<path d="M-38-2.5 Q-16-5 -3-3 L-3 3 Q-16 5-38 2.5Z" fill="url(#tail-mint)"/>
<ellipse rx="9" ry="6" fill="#7af4c4" opacity=".45" filter="url(#glow)"/>
<circle r="4.2" fill="#7af4c4"/><circle cx="1" cy="-1" r="1.5" fill="#fff" opacity=".9"/></g></g><g class="packet" opacity="0"><animateMotion path="M330 361 C402 361 431 361 515 361" dur="16s" repeatCount="indefinite" rotate="auto" keyPoints="0;0;1;1" keyTimes="0;0.56875;0.62187;1" calcMode="spline" keySplines="0 0 1 1;.32 0 .68 1;0 0 1 1"/><animate attributeName="opacity" dur="16s" repeatCount="indefinite" keyTimes="0.00000;0.56875;0.57688;0.61375;0.62187;1.00000" values="0;0;1;1;0;0" /><g transform="scale(1)">
<path d="M-38-2.5 Q-16-5 -3-3 L-3 3 Q-16 5-38 2.5Z" fill="url(#tail-gold)"/>
<ellipse rx="9" ry="6" fill="#ffd28a" opacity=".45" filter="url(#glow)"/>
<circle r="4.2" fill="#ffd28a"/><circle cx="1" cy="-1" r="1.5" fill="#fff" opacity=".9"/></g></g><g class="packet" opacity="0"><animateMotion path="M515 414 C435 414 416 414 330 414" dur="16s" repeatCount="indefinite" rotate="auto" keyPoints="0;0;1;1" keyTimes="0;0.63438;0.69062;1" calcMode="spline" keySplines="0 0 1 1;.32 0 .68 1;0 0 1 1"/><animate attributeName="opacity" dur="16s" repeatCount="indefinite" keyTimes="0.00000;0.63438;0.64250;0.68250;0.69062;1.00000" values="0;0;1;1;0;0" /><g transform="scale(1)">
<path d="M-38-2.5 Q-16-5 -3-3 L-3 3 Q-16 5-38 2.5Z" fill="url(#tail-mint)"/>
<ellipse rx="9" ry="6" fill="#7af4c4" opacity=".45" filter="url(#glow)"/>
<circle r="4.2" fill="#7af4c4"/><circle cx="1" cy="-1" r="1.5" fill="#fff" opacity=".9"/></g></g><g class="packet" opacity="0"><animateMotion path="M330 361 C402 361 431 361 515 361" dur="16s" repeatCount="indefinite" rotate="auto" keyPoints="0;0;1;1" keyTimes="0;0.62625;0.67937;1" calcMode="spline" keySplines="0 0 1 1;.32 0 .68 1;0 0 1 1"/><animate attributeName="opacity" dur="16s" repeatCount="indefinite" keyTimes="0.00000;0.62625;0.63438;0.67125;0.67937;1.00000" values="0;0;1;1;0;0" /><g transform="scale(1)">
<path d="M-38-2.5 Q-16-5 -3-3 L-3 3 Q-16 5-38 2.5Z" fill="url(#tail-gold)"/>
<ellipse rx="9" ry="6" fill="#ffd28a" opacity=".45" filter="url(#glow)"/>
<circle r="4.2" fill="#ffd28a"/><circle cx="1" cy="-1" r="1.5" fill="#fff" opacity=".9"/></g></g><g class="packet" opacity="0"><animateMotion path="M515 414 C435 414 416 414 330 414" dur="16s" repeatCount="indefinite" rotate="auto" keyPoints="0;0;1;1" keyTimes="0;0.69188;0.74750;1" calcMode="spline" keySplines="0 0 1 1;.32 0 .68 1;0 0 1 1"/><animate attributeName="opacity" dur="16s" repeatCount="indefinite" keyTimes="0.00000;0.69188;0.70000;0.73938;0.74750;1.00000" values="0;0;1;1;0;0" /><g transform="scale(1)">
<path d="M-38-2.5 Q-16-5 -3-3 L-3 3 Q-16 5-38 2.5Z" fill="url(#tail-mint)"/>
<ellipse rx="9" ry="6" fill="#7af4c4" opacity=".45" filter="url(#glow)"/>
<circle r="4.2" fill="#7af4c4"/><circle cx="1" cy="-1" r="1.5" fill="#fff" opacity=".9"/></g></g><path d="M805 416 C930 416 963 433 1120 433" fill="none" stroke="#1d334c" stroke-width="2"/><g opacity="0" ><animate attributeName="opacity" dur="16s" repeatCount="indefinite" keyTimes="0.00000;0.50000;0.51125;0.73875;0.75000;1.00000" values="0;0;1;1;0;0" /><path d="M805 416 C930 416 963 433 1120 433" fill="none" stroke="#ffd28a" stroke-width="2" stroke-opacity=".48"/></g><path d="M1120 470 C981 470 943 458 805 458" fill="none" stroke="#1d334c" stroke-width="2"/><g opacity="0" ><animate attributeName="opacity" dur="16s" repeatCount="indefinite" keyTimes="0.00000;0.50000;0.51125;0.73875;0.75000;1.00000" values="0;0;1;1;0;0" /><path d="M1120 470 C981 470 943 458 805 458" fill="none" stroke="#ffd28a" stroke-width="2" stroke-opacity=".48"/></g><g class="packet" opacity="0"><animateMotion path="M805 416 C930 416 963 433 1120 433" dur="16s" repeatCount="indefinite" rotate="auto" keyPoints="0;0;1;1" keyTimes="0;0.54500;0.59625;1" calcMode="spline" keySplines="0 0 1 1;.32 0 .68 1;0 0 1 1"/><animate attributeName="opacity" dur="16s" repeatCount="indefinite" keyTimes="0.00000;0.54500;0.55313;0.58813;0.59625;1.00000" values="0;0;1;1;0;0" /><g transform="scale(1)">
<path d="M-38-2.5 Q-16-5 -3-3 L-3 3 Q-16 5-38 2.5Z" fill="url(#tail-gold)"/>
<ellipse rx="9" ry="6" fill="#ffd28a" opacity=".45" filter="url(#glow)"/>
<circle r="4.2" fill="#ffd28a"/><circle cx="1" cy="-1" r="1.5" fill="#fff" opacity=".9"/></g></g><g class="packet" opacity="0"><animateMotion path="M1120 470 C981 470 943 458 805 458" dur="16s" repeatCount="indefinite" rotate="auto" keyPoints="0;0;1;1" keyTimes="0;0.60437;0.64875;1" calcMode="spline" keySplines="0 0 1 1;.32 0 .68 1;0 0 1 1"/><animate attributeName="opacity" dur="16s" repeatCount="indefinite" keyTimes="0.00000;0.60437;0.61250;0.64062;0.64875;1.00000" values="0;0;1;1;0;0" /><g transform="scale(1)">
<path d="M-38-2.5 Q-16-5 -3-3 L-3 3 Q-16 5-38 2.5Z" fill="url(#tail-gold)"/>
<ellipse rx="9" ry="6" fill="#ffd28a" opacity=".45" filter="url(#glow)"/>
<circle r="4.2" fill="#ffd28a"/><circle cx="1" cy="-1" r="1.5" fill="#fff" opacity=".9"/></g></g><g class="packet" opacity="0"><animateMotion path="M805 416 C930 416 963 433 1120 433" dur="16s" repeatCount="indefinite" rotate="auto" keyPoints="0;0;1;1" keyTimes="0;0.62125;0.67250;1" calcMode="spline" keySplines="0 0 1 1;.32 0 .68 1;0 0 1 1"/><animate attributeName="opacity" dur="16s" repeatCount="indefinite" keyTimes="0.00000;0.62125;0.62938;0.66438;0.67250;1.00000" values="0;0;1;1;0;0" /><g transform="scale(1)">
<path d="M-38-2.5 Q-16-5 -3-3 L-3 3 Q-16 5-38 2.5Z" fill="url(#tail-gold)"/>
<ellipse rx="9" ry="6" fill="#ffd28a" opacity=".45" filter="url(#glow)"/>
<circle r="4.2" fill="#ffd28a"/><circle cx="1" cy="-1" r="1.5" fill="#fff" opacity=".9"/></g></g><g class="packet" opacity="0"><animateMotion path="M1120 470 C981 470 943 458 805 458" dur="16s" repeatCount="indefinite" rotate="auto" keyPoints="0;0;1;1" keyTimes="0;0.68063;0.72500;1" calcMode="spline" keySplines="0 0 1 1;.32 0 .68 1;0 0 1 1"/><animate attributeName="opacity" dur="16s" repeatCount="indefinite" keyTimes="0.00000;0.68063;0.68875;0.71688;0.72500;1.00000" values="0;0;1;1;0;0" /><g transform="scale(1)">
<path d="M-38-2.5 Q-16-5 -3-3 L-3 3 Q-16 5-38 2.5Z" fill="url(#tail-gold)"/>
<ellipse rx="9" ry="6" fill="#ffd28a" opacity=".45" filter="url(#glow)"/>
<circle r="4.2" fill="#ffd28a"/><circle cx="1" cy="-1" r="1.5" fill="#fff" opacity=".9"/></g></g><path d="M805 345 C930 345 928 252 1120 252" fill="none" stroke="#1d334c" stroke-width="2"/><g opacity="0" ><animate attributeName="opacity" dur="16s" repeatCount="indefinite" keyTimes="0.00000;0.65625;0.66750;0.73875;0.75000;1.00000" values="0;0;1;1;0;0" /><path d="M805 345 C930 345 928 252 1120 252" fill="none" stroke="#ffd28a" stroke-width="2" stroke-opacity=".48"/></g><g class="packet" opacity="0"><animateMotion path="M805 345 C930 345 928 252 1120 252" dur="16s" repeatCount="indefinite" rotate="auto" keyPoints="0;0;1;1" keyTimes="0;0.66563;0.72813;1" calcMode="spline" keySplines="0 0 1 1;.32 0 .68 1;0 0 1 1"/><animate attributeName="opacity" dur="16s" repeatCount="indefinite" keyTimes="0.00000;0.66563;0.67375;0.72000;0.72813;1.00000" values="0;0;1;1;0;0" /><g transform="scale(1)">
<path d="M-38-2.5 Q-16-5 -3-3 L-3 3 Q-16 5-38 2.5Z" fill="url(#tail-gold)"/>
<ellipse rx="9" ry="6" fill="#ffd28a" opacity=".45" filter="url(#glow)"/>
<circle r="4.2" fill="#ffd28a"/><circle cx="1" cy="-1" r="1.5" fill="#fff" opacity=".9"/></g></g><path d="M330 361 C402 361 431 361 515 361" fill="none" stroke="#1d334c" stroke-width="2"/><g opacity="0" ><animate attributeName="opacity" dur="16s" repeatCount="indefinite" keyTimes="0.00000;0.75000;0.76125;0.98875;1.00000" values="0;0;1;1;0" /><path d="M330 361 C402 361 431 361 515 361" fill="none" stroke="#7af4c4" stroke-width="2" stroke-opacity=".48"/></g><path d="M515 414 C435 414 416 414 330 414" fill="none" stroke="#1d334c" stroke-width="2"/><g opacity="0" ><animate attributeName="opacity" dur="16s" repeatCount="indefinite" keyTimes="0.00000;0.75000;0.76125;0.98875;1.00000" values="0;0;1;1;0" /><path d="M515 414 C435 414 416 414 330 414" fill="none" stroke="#7af4c4" stroke-width="2" stroke-opacity=".48"/></g><g opacity="0" ><animate attributeName="opacity" dur="16s" repeatCount="indefinite" keyTimes="0.00000;0.75000;0.76125;0.98875;1.00000" values="0;0;1;1;0" /><text x="660" y="505" fill="#7af4c4" font-family="Malgun Gothic,Apple SD Gothic Neo,Noto Sans KR,Segoe UI,sans-serif" font-size="23" font-weight="400" text-anchor="middle">구매 확정 후 발행</text></g><g class="packet" opacity="0"><animateMotion path="M330 361 C402 361 431 361 515 361" dur="16s" repeatCount="indefinite" rotate="auto" keyPoints="0;0;1;1" keyTimes="0;0.76125;0.81437;1" calcMode="spline" keySplines="0 0 1 1;.32 0 .68 1;0 0 1 1"/><animate attributeName="opacity" dur="16s" repeatCount="indefinite" keyTimes="0.00000;0.76125;0.76938;0.80625;0.81437;1.00000" values="0;0;1;1;0;0" /><g transform="scale(1)">
<path d="M-38-2.5 Q-16-5 -3-3 L-3 3 Q-16 5-38 2.5Z" fill="url(#tail-mint)"/>
<ellipse rx="9" ry="6" fill="#7af4c4" opacity=".45" filter="url(#glow)"/>
<circle r="4.2" fill="#7af4c4"/><circle cx="1" cy="-1" r="1.5" fill="#fff" opacity=".9"/></g></g><g class="packet" opacity="0"><animateMotion path="M515 414 C435 414 416 414 330 414" dur="16s" repeatCount="indefinite" rotate="auto" keyPoints="0;0;1;1" keyTimes="0;0.82688;0.88312;1" calcMode="spline" keySplines="0 0 1 1;.32 0 .68 1;0 0 1 1"/><animate attributeName="opacity" dur="16s" repeatCount="indefinite" keyTimes="0.00000;0.82688;0.83500;0.87500;0.88312;1.00000" values="0;0;1;1;0;0" /><g transform="scale(1)">
<path d="M-38-2.5 Q-16-5 -3-3 L-3 3 Q-16 5-38 2.5Z" fill="url(#tail-mint)"/>
<ellipse rx="9" ry="6" fill="#7af4c4" opacity=".45" filter="url(#glow)"/>
<circle r="4.2" fill="#7af4c4"/><circle cx="1" cy="-1" r="1.5" fill="#fff" opacity=".9"/></g></g><g class="packet" opacity="0"><animateMotion path="M330 361 C402 361 431 361 515 361" dur="16s" repeatCount="indefinite" rotate="auto" keyPoints="0;0;1;1" keyTimes="0;0.81875;0.87187;1" calcMode="spline" keySplines="0 0 1 1;.32 0 .68 1;0 0 1 1"/><animate attributeName="opacity" dur="16s" repeatCount="indefinite" keyTimes="0.00000;0.81875;0.82688;0.86375;0.87187;1.00000" values="0;0;1;1;0;0" /><g transform="scale(1)">
<path d="M-38-2.5 Q-16-5 -3-3 L-3 3 Q-16 5-38 2.5Z" fill="url(#tail-mint)"/>
<ellipse rx="9" ry="6" fill="#7af4c4" opacity=".45" filter="url(#glow)"/>
<circle r="4.2" fill="#7af4c4"/><circle cx="1" cy="-1" r="1.5" fill="#fff" opacity=".9"/></g></g><g class="packet" opacity="0"><animateMotion path="M515 414 C435 414 416 414 330 414" dur="16s" repeatCount="indefinite" rotate="auto" keyPoints="0;0;1;1" keyTimes="0;0.88438;0.94062;1" calcMode="spline" keySplines="0 0 1 1;.32 0 .68 1;0 0 1 1"/><animate attributeName="opacity" dur="16s" repeatCount="indefinite" keyTimes="0.00000;0.88438;0.89250;0.93250;0.94062;1.00000" values="0;0;1;1;0;0" /><g transform="scale(1)">
<path d="M-38-2.5 Q-16-5 -3-3 L-3 3 Q-16 5-38 2.5Z" fill="url(#tail-mint)"/>
<ellipse rx="9" ry="6" fill="#7af4c4" opacity=".45" filter="url(#glow)"/>
<circle r="4.2" fill="#7af4c4"/><circle cx="1" cy="-1" r="1.5" fill="#fff" opacity=".9"/></g></g><g class="packet" opacity="0"><animateMotion path="M330 361 C402 361 431 361 515 361" dur="16s" repeatCount="indefinite" rotate="auto" keyPoints="0;0;1;1" keyTimes="0;0.87625;0.92937;1" calcMode="spline" keySplines="0 0 1 1;.32 0 .68 1;0 0 1 1"/><animate attributeName="opacity" dur="16s" repeatCount="indefinite" keyTimes="0.00000;0.87625;0.88438;0.92125;0.92937;1.00000" values="0;0;1;1;0;0" /><g transform="scale(1)">
<path d="M-38-2.5 Q-16-5 -3-3 L-3 3 Q-16 5-38 2.5Z" fill="url(#tail-mint)"/>
<ellipse rx="9" ry="6" fill="#7af4c4" opacity=".45" filter="url(#glow)"/>
<circle r="4.2" fill="#7af4c4"/><circle cx="1" cy="-1" r="1.5" fill="#fff" opacity=".9"/></g></g><g class="packet" opacity="0"><animateMotion path="M515 414 C435 414 416 414 330 414" dur="16s" repeatCount="indefinite" rotate="auto" keyPoints="0;0;1;1" keyTimes="0;0.94188;0.99750;1" calcMode="spline" keySplines="0 0 1 1;.32 0 .68 1;0 0 1 1"/><animate attributeName="opacity" dur="16s" repeatCount="indefinite" keyTimes="0.00000;0.94188;0.95000;0.98938;0.99750;1.00000" values="0;0;1;1;0;0" /><g transform="scale(1)">
<path d="M-38-2.5 Q-16-5 -3-3 L-3 3 Q-16 5-38 2.5Z" fill="url(#tail-mint)"/>
<ellipse rx="9" ry="6" fill="#7af4c4" opacity=".45" filter="url(#glow)"/>
<circle r="4.2" fill="#7af4c4"/><circle cx="1" cy="-1" r="1.5" fill="#fff" opacity=".9"/></g></g><path d="M805 416 C930 416 963 433 1120 433" fill="none" stroke="#1d334c" stroke-width="2"/><g opacity="0" ><animate attributeName="opacity" dur="16s" repeatCount="indefinite" keyTimes="0.00000;0.75000;0.76125;0.98875;1.00000" values="0;0;1;1;0" /><path d="M805 416 C930 416 963 433 1120 433" fill="none" stroke="#7af4c4" stroke-width="2" stroke-opacity=".48"/></g><path d="M1120 470 C981 470 943 458 805 458" fill="none" stroke="#1d334c" stroke-width="2"/><g opacity="0" ><animate attributeName="opacity" dur="16s" repeatCount="indefinite" keyTimes="0.00000;0.75000;0.76125;0.98875;1.00000" values="0;0;1;1;0" /><path d="M1120 470 C981 470 943 458 805 458" fill="none" stroke="#7af4c4" stroke-width="2" stroke-opacity=".48"/></g><g class="packet" opacity="0"><animateMotion path="M805 416 C930 416 963 433 1120 433" dur="16s" repeatCount="indefinite" rotate="auto" keyPoints="0;0;1;1" keyTimes="0;0.79500;0.84625;1" calcMode="spline" keySplines="0 0 1 1;.32 0 .68 1;0 0 1 1"/><animate attributeName="opacity" dur="16s" repeatCount="indefinite" keyTimes="0.00000;0.79500;0.80313;0.83813;0.84625;1.00000" values="0;0;1;1;0;0" /><g transform="scale(1)">
<path d="M-38-2.5 Q-16-5 -3-3 L-3 3 Q-16 5-38 2.5Z" fill="url(#tail-mint)"/>
<ellipse rx="9" ry="6" fill="#7af4c4" opacity=".45" filter="url(#glow)"/>
<circle r="4.2" fill="#7af4c4"/><circle cx="1" cy="-1" r="1.5" fill="#fff" opacity=".9"/></g></g><g class="packet" opacity="0"><animateMotion path="M1120 470 C981 470 943 458 805 458" dur="16s" repeatCount="indefinite" rotate="auto" keyPoints="0;0;1;1" keyTimes="0;0.85437;0.89875;1" calcMode="spline" keySplines="0 0 1 1;.32 0 .68 1;0 0 1 1"/><animate attributeName="opacity" dur="16s" repeatCount="indefinite" keyTimes="0.00000;0.85437;0.86250;0.89062;0.89875;1.00000" values="0;0;1;1;0;0" /><g transform="scale(1)">
<path d="M-38-2.5 Q-16-5 -3-3 L-3 3 Q-16 5-38 2.5Z" fill="url(#tail-mint)"/>
<ellipse rx="9" ry="6" fill="#7af4c4" opacity=".45" filter="url(#glow)"/>
<circle r="4.2" fill="#7af4c4"/><circle cx="1" cy="-1" r="1.5" fill="#fff" opacity=".9"/></g></g><g class="packet" opacity="0"><animateMotion path="M805 416 C930 416 963 433 1120 433" dur="16s" repeatCount="indefinite" rotate="auto" keyPoints="0;0;1;1" keyTimes="0;0.87125;0.92250;1" calcMode="spline" keySplines="0 0 1 1;.32 0 .68 1;0 0 1 1"/><animate attributeName="opacity" dur="16s" repeatCount="indefinite" keyTimes="0.00000;0.87125;0.87938;0.91438;0.92250;1.00000" values="0;0;1;1;0;0" /><g transform="scale(1)">
<path d="M-38-2.5 Q-16-5 -3-3 L-3 3 Q-16 5-38 2.5Z" fill="url(#tail-mint)"/>
<ellipse rx="9" ry="6" fill="#7af4c4" opacity=".45" filter="url(#glow)"/>
<circle r="4.2" fill="#7af4c4"/><circle cx="1" cy="-1" r="1.5" fill="#fff" opacity=".9"/></g></g><g class="packet" opacity="0"><animateMotion path="M1120 470 C981 470 943 458 805 458" dur="16s" repeatCount="indefinite" rotate="auto" keyPoints="0;0;1;1" keyTimes="0;0.93063;0.97500;1" calcMode="spline" keySplines="0 0 1 1;.32 0 .68 1;0 0 1 1"/><animate attributeName="opacity" dur="16s" repeatCount="indefinite" keyTimes="0.00000;0.93063;0.93875;0.96688;0.97500;1.00000" values="0;0;1;1;0;0" /><g transform="scale(1)">
<path d="M-38-2.5 Q-16-5 -3-3 L-3 3 Q-16 5-38 2.5Z" fill="url(#tail-mint)"/>
<ellipse rx="9" ry="6" fill="#7af4c4" opacity=".45" filter="url(#glow)"/>
<circle r="4.2" fill="#7af4c4"/><circle cx="1" cy="-1" r="1.5" fill="#fff" opacity=".9"/></g></g><path d="M805 488 C939 488 926 614 1120 614" fill="none" stroke="#1d334c" stroke-width="2"/><g opacity="0" ><animate attributeName="opacity" dur="16s" repeatCount="indefinite" keyTimes="0.00000;0.88750;0.89875;0.98875;1.00000" values="0;0;1;1;0" /><path d="M805 488 C939 488 926 614 1120 614" fill="none" stroke="#7af4c4" stroke-width="2" stroke-opacity=".48"/></g><g class="packet" opacity="0"><animateMotion path="M805 488 C939 488 926 614 1120 614" dur="16s" repeatCount="indefinite" rotate="auto" keyPoints="0;0;1;1" keyTimes="0;0.89500;0.96562;1" calcMode="spline" keySplines="0 0 1 1;.32 0 .68 1;0 0 1 1"/><animate attributeName="opacity" dur="16s" repeatCount="indefinite" keyTimes="0.00000;0.89500;0.90313;0.95750;0.96562;1.00000" values="0;0;1;1;0;0" /><g transform="scale(1.2)">
<path d="M-38-2.5 Q-16-5 -3-3 L-3 3 Q-16 5-38 2.5Z" fill="url(#tail-mint)"/>
<ellipse rx="9" ry="6" fill="#7af4c4" opacity=".45" filter="url(#glow)"/>
<circle r="4.2" fill="#7af4c4"/><circle cx="1" cy="-1" r="1.5" fill="#fff" opacity=".9"/></g></g><g opacity="0" ><animate attributeName="opacity" dur="16s" repeatCount="indefinite" keyTimes="0.00000;0.94375;0.95500;0.98562;0.99687;1.00000" values="0;0;1;1;0;0" /><circle cx="1160" cy="625" r="34" fill="none" stroke="#7af4c4" stroke-width="2"><animate attributeName="r" values="34;58" dur="1.6s" repeatCount="indefinite"/><animate attributeName="opacity" values=".65;0" dur="1.6s" repeatCount="indefinite"/></circle></g><path d="M60.0 734h350.0" stroke="#293c53" stroke-width="2"/><text x="60.0" y="774" fill="#95a9c4" font-family="Malgun Gothic,Apple SD Gothic Neo,Noto Sans KR,Segoe UI,sans-serif" font-size="24" font-weight="600" text-anchor="start">캐시 조회</text><g opacity="0" ><animate attributeName="opacity" dur="16s" repeatCount="indefinite" keyTimes="0.00000;0.23875;0.25000;1.00000" values="1;1;0;0" /><text x="60.0" y="774" fill="#62d4ff" font-family="Malgun Gothic,Apple SD Gothic Neo,Noto Sans KR,Segoe UI,sans-serif" font-size="24" font-weight="600" text-anchor="start">캐시 조회</text></g><g opacity="0" ><animate attributeName="opacity" dur="16s" repeatCount="indefinite" keyTimes="0.00000;0.23875;0.25000;1.00000" values="1;1;0;0" /><path d="M60.0 734h350.0" stroke="#62d4ff" stroke-width="3" pathLength="1" stroke-dasharray="1" stroke-dashoffset="1"><animate attributeName="stroke-dashoffset" dur="16s" repeatCount="indefinite" keyTimes="0.00000;0.25000;1.00000" values="1;0;0" /></path></g><path d="M430.0 734h350.0" stroke="#293c53" stroke-width="2"/><text x="430.0" y="774" fill="#95a9c4" font-family="Malgun Gothic,Apple SD Gothic Neo,Noto Sans KR,Segoe UI,sans-serif" font-size="24" font-weight="600" text-anchor="start">대기 순번</text><g opacity="0" ><animate attributeName="opacity" dur="16s" repeatCount="indefinite" keyTimes="0.00000;0.25000;0.26125;0.48875;0.50000;1.00000" values="0;0;1;1;0;0" /><text x="430.0" y="774" fill="#bda0ff" font-family="Malgun Gothic,Apple SD Gothic Neo,Noto Sans KR,Segoe UI,sans-serif" font-size="24" font-weight="600" text-anchor="start">대기 순번</text></g><g opacity="0" ><animate attributeName="opacity" dur="16s" repeatCount="indefinite" keyTimes="0.00000;0.25000;0.26125;0.48875;0.50000;1.00000" values="0;0;1;1;0;0" /><path d="M430.0 734h350.0" stroke="#bda0ff" stroke-width="3" pathLength="1" stroke-dasharray="1" stroke-dashoffset="1"><animate attributeName="stroke-dashoffset" dur="16s" repeatCount="indefinite" keyTimes="0.00000;0.25000;0.50000;1.00000" values="1;1;0;0" /></path></g><path d="M800.0 734h350.0" stroke="#293c53" stroke-width="2"/><text x="800.0" y="774" fill="#95a9c4" font-family="Malgun Gothic,Apple SD Gothic Neo,Noto Sans KR,Segoe UI,sans-serif" font-size="24" font-weight="600" text-anchor="start">예약 · 주문</text><g opacity="0" ><animate attributeName="opacity" dur="16s" repeatCount="indefinite" keyTimes="0.00000;0.50000;0.51125;0.73875;0.75000;1.00000" values="0;0;1;1;0;0" /><text x="800.0" y="774" fill="#ffd28a" font-family="Malgun Gothic,Apple SD Gothic Neo,Noto Sans KR,Segoe UI,sans-serif" font-size="24" font-weight="600" text-anchor="start">예약 · 주문</text></g><g opacity="0" ><animate attributeName="opacity" dur="16s" repeatCount="indefinite" keyTimes="0.00000;0.50000;0.51125;0.73875;0.75000;1.00000" values="0;0;1;1;0;0" /><path d="M800.0 734h350.0" stroke="#ffd28a" stroke-width="3" pathLength="1" stroke-dasharray="1" stroke-dashoffset="1"><animate attributeName="stroke-dashoffset" dur="16s" repeatCount="indefinite" keyTimes="0.00000;0.50000;0.75000;1.00000" values="1;1;0;0" /></path></g><path d="M1170.0 734h350.0" stroke="#293c53" stroke-width="2"/><text x="1170.0" y="774" fill="#95a9c4" font-family="Malgun Gothic,Apple SD Gothic Neo,Noto Sans KR,Segoe UI,sans-serif" font-size="24" font-weight="600" text-anchor="start">결제 확정</text><g opacity="0" ><animate attributeName="opacity" dur="16s" repeatCount="indefinite" keyTimes="0.00000;0.75000;0.76125;0.98875;1.00000" values="0;0;1;1;0" /><text x="1170.0" y="774" fill="#7af4c4" font-family="Malgun Gothic,Apple SD Gothic Neo,Noto Sans KR,Segoe UI,sans-serif" font-size="24" font-weight="600" text-anchor="start">결제 확정</text></g><g opacity="0" ><animate attributeName="opacity" dur="16s" repeatCount="indefinite" keyTimes="0.00000;0.75000;0.76125;0.98875;1.00000" values="0;0;1;1;0" /><path d="M1170.0 734h350.0" stroke="#7af4c4" stroke-width="3" pathLength="1" stroke-dasharray="1" stroke-dashoffset="1"><animate attributeName="stroke-dashoffset" dur="16s" repeatCount="indefinite" keyTimes="0.00000;0.75000;1.00000" values="1;1;0" /></path></g>
</svg>
